<svg xmlns="http://www.w3.org/2000/svg" width="1200" height="800" viewBox="0 0 1200 800">
  <defs>
    <pattern id="grid" width="50" height="50" patternUnits="userSpaceOnUse">
      <path d="M 50 0 L 0 0 0 50" fill="none" stroke="#374151" stroke-width="0.5"/>
    </pattern>
    <linearGradient id="zoneA" x1="0%" y1="0%" x2="100%" y2="100%">
      <stop offset="0%" style="stop-color:#10B981;stop-opacity:0.1" />
      <stop offset="100%" style="stop-color:#10B981;stop-opacity:0.05" />
    </linearGradient>
    <linearGradient id="zoneB" x1="0%" y1="0%" x2="100%" y2="100%">
      <stop offset="0%" style="stop-color:#3B82F6;stop-opacity:0.1" />
      <stop offset="100%" style="stop-color:#3B82F6;stop-opacity:0.05" />
    </linearGradient>
    <linearGradient id="zoneC" x1="0%" y1="0%" x2="100%" y2="100%">
      <stop offset="0%" style="stop-color:#F59E0B;stop-opacity:0.1" />
      <stop offset="100%" style="stop-color:#F59E0B;stop-opacity:0.05" />
    </linearGradient>
  </defs>

  <!-- Background -->
  <rect width="100%" height="100%" fill="#1a1a1a"/>
  <rect width="100%" height="100%" fill="url(#grid)"/>

  <!-- Zone A -->
  <rect x="50" y="50" width="350" height="700" fill="url(#zoneA)" stroke="#10B981" stroke-width="2" stroke-dasharray="10,5" rx="10"/>
  <text x="225" y="90" fill="#10B981" font-family="Arial, sans-serif" font-size="24" font-weight="bold" text-anchor="middle">ZONE A</text>
  <text x="225" y="115" fill="#6B7280" font-family="Arial, sans-serif" font-size="12" text-anchor="middle">Emplacements Premium</text>

  <!-- Zone B -->
  <rect x="425" y="50" width="350" height="700" fill="url(#zoneB)" stroke="#3B82F6" stroke-width="2" stroke-dasharray="10,5" rx="10"/>
  <text x="600" y="90" fill="#3B82F6" font-family="Arial, sans-serif" font-size="24" font-weight="bold" text-anchor="middle">ZONE B</text>
  <text x="600" y="115" fill="#6B7280" font-family="Arial, sans-serif" font-size="12" text-anchor="middle">Emplacements Standard</text>

  <!-- Zone C -->
  <rect x="800" y="50" width="350" height="700" fill="url(#zoneC)" stroke="#F59E0B" stroke-width="2" stroke-dasharray="10,5" rx="10"/>
  <text x="975" y="90" fill="#F59E0B" font-family="Arial, sans-serif" font-size="24" font-weight="bold" text-anchor="middle">ZONE C</text>
  <text x="975" y="115" fill="#6B7280" font-family="Arial, sans-serif" font-size="12" text-anchor="middle">Emplacements Économiques</text>

  <!-- Circuit/Track representation -->
  <path d="M 600 400 Q 900 200 1100 400 Q 900 600 600 400 Q 300 200 100 400 Q 300 600 600 400"
        fill="none" stroke="#374151" stroke-width="3" stroke-dasharray="20,10"/>

  <!-- Entrée -->
  <rect x="550" y="750" width="100" height="40" fill="#DC2626" rx="5"/>
  <text x="600" y="777" fill="white" font-family="Arial, sans-serif" font-size="14" font-weight="bold" text-anchor="middle">ENTRÉE</text>

  <!-- Légende -->
  <rect x="20" y="760" width="200" height="30" fill="#262626" rx="5"/>
  <text x="120" y="780" fill="#9CA3AF" font-family="Arial, sans-serif" font-size="11" text-anchor="middle">🏁 Plan du Paddock RUN200</text>

  <!-- North indicator -->
  <g transform="translate(1150, 50)">
    <circle cx="0" cy="0" r="20" fill="#262626" stroke="#4B5563"/>
    <text x="0" y="5" fill="white" font-family="Arial, sans-serif" font-size="14" font-weight="bold" text-anchor="middle">N</text>
    <path d="M 0 -15 L 5 -5 L 0 -8 L -5 -5 Z" fill="#DC2626"/>
  </g>
</svg>
